<svg width="121" height="40" viewBox="0 0 121 40" fill="none" xmlns="http://www.w3.org/2000/svg">
  <path d="M21.2 33V7H27.8C31.1167 7 33.7583 7.975 35.725 9.925C37.7083 11.8583 38.7 14.3333 38.7 17.35C38.7 20.4333 37.7083 22.9417 35.725 24.875C33.7583 26.7917 31.1167 27.75 27.8 27.75H24.4V33H21.2ZM24.4 24.75H27.5C29.6 24.75 31.2583 24.1583 32.475 23C33.7083 21.825 34.325 20.0667 34.325 17.725C34.325 15.3833 33.7083 13.625 32.475 12.45C31.2583 11.2583 29.6 10.65 27.5 10.65H24.4V24.75Z" fill="currentColor"/>
  <path d="M44.45 33V7H47.65V33H44.45Z" fill="currentColor"/>
  <path d="M52.85 33V7H56.05V29.75H64.9V33H52.85Z" fill="currentColor"/>
  <path d="M70.3867 33V7H73.5867V33H70.3867Z" fill="currentColor"/>
  <rect x="79" y="7" width="42" height="26" rx="4" fill="currentColor" fill-opacity="0.1"/>
  <path d="M88.8115 25.5V22.536H94.1955V25.5H88.8115Z" fill="currentColor"/>
  <path d="M98 15L104 21L98 27" stroke="currentColor" stroke-width="2" stroke-linecap="round" stroke-linejoin="round"/>
</svg>
